<svg width="25" height="26" viewBox="0 0 25 26" fill="none" xmlns="http://www.w3.org/2000/svg">
<rect x="0.000488281" y="0.916992" width="25" height="25" rx="12.5" fill="white"/>
<path d="M7.73049 17.167L7.19799 17.6995C7.0583 17.84 6.97989 18.0301 6.97989 18.2282C6.97989 18.4264 7.0583 18.6165 7.19799 18.757C7.33851 18.8967 7.5286 18.9751 7.72674 18.9751C7.92488 18.9751 8.11497 18.8967 8.25549 18.757L8.78799 18.2245C8.91086 18.081 8.97506 17.8965 8.96777 17.7077C8.96048 17.5189 8.88223 17.3399 8.74866 17.2063C8.61509 17.0727 8.43604 16.9945 8.24728 16.9872C8.05852 16.9799 7.87396 17.0441 7.73049 17.167ZM7.25049 13.417C7.25049 13.2181 7.17147 13.0273 7.03082 12.8867C6.89017 12.746 6.6994 12.667 6.50049 12.667H5.75049C5.55158 12.667 5.36081 12.746 5.22016 12.8867C5.07951 13.0273 5.00049 13.2181 5.00049 13.417C5.00049 13.6159 5.07951 13.8067 5.22016 13.9473C5.36081 14.088 5.55158 14.167 5.75049 14.167H6.50049C6.6994 14.167 6.89017 14.088 7.03082 13.9473C7.17147 13.8067 7.25049 13.6159 7.25049 13.417ZM12.5005 8.16699C12.6994 8.16699 12.8902 8.08797 13.0308 7.94732C13.1715 7.80667 13.2505 7.6159 13.2505 7.41699V6.66699C13.2505 6.46808 13.1715 6.27731 13.0308 6.13666C12.8902 5.99601 12.6994 5.91699 12.5005 5.91699C12.3016 5.91699 12.1108 5.99601 11.9702 6.13666C11.8295 6.27731 11.7505 6.46808 11.7505 6.66699V7.41699C11.7505 7.6159 11.8295 7.80667 11.9702 7.94732C12.1108 8.08797 12.3016 8.16699 12.5005 8.16699ZM7.73049 9.70449C7.87018 9.84305 8.05873 9.92116 8.25549 9.92199C8.35419 9.92256 8.45204 9.90364 8.54342 9.86632C8.6348 9.829 8.71791 9.774 8.78799 9.70449C8.92768 9.56397 9.00608 9.37388 9.00608 9.17574C9.00608 8.9776 8.92768 8.78751 8.78799 8.64699L8.25549 8.11449C8.11201 7.99162 7.92746 7.92742 7.7387 7.93471C7.54994 7.942 7.37089 8.02025 7.23732 8.15382C7.10374 8.28739 7.0255 8.46645 7.0182 8.6552C7.01091 8.84396 7.07512 9.02852 7.19799 9.17199L7.73049 9.70449ZM16.7305 9.92199C16.9272 9.92116 17.1158 9.84305 17.2555 9.70449L17.788 9.17199C17.8665 9.10476 17.9303 9.02202 17.9753 8.92897C18.0203 8.83592 18.0456 8.73457 18.0496 8.63128C18.0536 8.52799 18.0362 8.42499 17.9985 8.32875C17.9608 8.23251 17.9036 8.1451 17.8305 8.072C17.7574 7.99891 17.67 7.94172 17.5737 7.90401C17.4775 7.86631 17.3745 7.8489 17.2712 7.85289C17.1679 7.85688 17.0666 7.88218 16.9735 7.9272C16.8805 7.97222 16.7977 8.03598 16.7305 8.11449L16.2505 8.64699C16.1108 8.78751 16.0324 8.9776 16.0324 9.17574C16.0324 9.37388 16.1108 9.56397 16.2505 9.70449C16.3827 9.83601 16.5592 9.91356 16.7455 9.92199H16.7305ZM19.2505 12.667H18.5005C18.3016 12.667 18.1108 12.746 17.9702 12.8867C17.8295 13.0273 17.7505 13.2181 17.7505 13.417C17.7505 13.6159 17.8295 13.8067 17.9702 13.9473C18.1108 14.088 18.3016 14.167 18.5005 14.167H19.2505C19.4494 14.167 19.6402 14.088 19.7808 13.9473C19.9215 13.8067 20.0005 13.6159 20.0005 13.417C20.0005 13.2181 19.9215 13.0273 19.7808 12.8867C19.6402 12.746 19.4494 12.667 19.2505 12.667ZM12.5005 18.667C12.3016 18.667 12.1108 18.746 11.9702 18.8867C11.8295 19.0273 11.7505 19.2181 11.7505 19.417V20.167C11.7505 20.3659 11.8295 20.5567 11.9702 20.6973C12.1108 20.838 12.3016 20.917 12.5005 20.917C12.6994 20.917 12.8902 20.838 13.0308 20.6973C13.1715 20.5567 13.2505 20.3659 13.2505 20.167V19.417C13.2505 19.2181 13.1715 19.0273 13.0308 18.8867C12.8902 18.746 12.6994 18.667 12.5005 18.667ZM17.2705 17.167C17.128 17.0877 16.9636 17.0571 16.8021 17.0796C16.6406 17.1022 16.4909 17.1768 16.3756 17.2921C16.2603 17.4074 16.1857 17.5571 16.1631 17.7186C16.1406 17.8801 16.1712 18.0445 16.2505 18.187L16.783 18.7195C16.9235 18.8592 17.1136 18.9376 17.3117 18.9376C17.5099 18.9376 17.7 18.8592 17.8405 18.7195C17.9802 18.579 18.0586 18.3889 18.0586 18.1907C18.0586 17.9926 17.9802 17.8025 17.8405 17.662L17.2705 17.167ZM12.5005 9.29199C11.6846 9.29199 10.8871 9.53392 10.2088 9.98718C9.53041 10.4404 9.0017 11.0847 8.68949 11.8384C8.37727 12.5922 8.29558 13.4216 8.45475 14.2217C8.61391 15.0219 9.00678 15.7569 9.58367 16.3338C10.1606 16.9107 10.8956 17.3036 11.6957 17.4627C12.4959 17.6219 13.3253 17.5402 14.0791 17.228C14.8328 16.9158 15.477 16.3871 15.9303 15.7087C16.3836 15.0304 16.6255 14.2328 16.6255 13.417C16.6235 12.3236 16.1883 11.2755 15.4151 10.5024C14.642 9.72921 13.5939 9.29397 12.5005 9.29199ZM12.5005 16.042C11.9813 16.042 11.4738 15.888 11.0421 15.5996C10.6104 15.3112 10.274 14.9012 10.0753 14.4215C9.87662 13.9419 9.82464 13.4141 9.92593 12.9049C10.0272 12.3957 10.2772 11.9279 10.6443 11.5608C11.0114 11.1937 11.4792 10.9437 11.9884 10.8424C12.4976 10.7411 13.0254 10.7931 13.505 10.9918C13.9847 11.1905 14.3947 11.5269 14.6831 11.9586C14.9715 12.3903 15.1255 12.8978 15.1255 13.417C15.1255 14.1132 14.8489 14.7809 14.3566 15.2731C13.8644 15.7654 13.1967 16.042 12.5005 16.042Z" fill="#053536"/>
</svg>
