<svg width="25" height="26" viewBox="0 0 25 26" fill="none" xmlns="http://www.w3.org/2000/svg">
<rect y="0.916992" width="25" height="25" rx="12.5" fill="white"/>
<path d="M7.73 17.167L7.1975 17.6995C7.05781 17.84 6.97941 18.0301 6.97941 18.2282C6.97941 18.4264 7.05781 18.6165 7.1975 18.757C7.33802 18.8967 7.52811 18.9751 7.72625 18.9751C7.92439 18.9751 8.11448 18.8967 8.255 18.757L8.7875 18.2245C8.91037 18.081 8.97457 17.8965 8.96728 17.7077C8.95999 17.5189 8.88174 17.3399 8.74817 17.2063C8.6146 17.0727 8.43555 16.9945 8.24679 16.9872C8.05803 16.9799 7.87348 17.0441 7.73 17.167V17.167ZM7.25 13.417C7.25 13.2181 7.17098 13.0273 7.03033 12.8867C6.88968 12.746 6.69891 12.667 6.5 12.667H5.75C5.55109 12.667 5.36032 12.746 5.21967 12.8867C5.07902 13.0273 5 13.2181 5 13.417C5 13.6159 5.07902 13.8067 5.21967 13.9473C5.36032 14.088 5.55109 14.167 5.75 14.167H6.5C6.69891 14.167 6.88968 14.088 7.03033 13.9473C7.17098 13.8067 7.25 13.6159 7.25 13.417ZM12.5 8.16699C12.6989 8.16699 12.8897 8.08797 13.0303 7.94732C13.171 7.80667 13.25 7.6159 13.25 7.41699V6.66699C13.25 6.46808 13.171 6.27731 13.0303 6.13666C12.8897 5.99601 12.6989 5.91699 12.5 5.91699C12.3011 5.91699 12.1103 5.99601 11.9697 6.13666C11.829 6.27731 11.75 6.46808 11.75 6.66699V7.41699C11.75 7.6159 11.829 7.80667 11.9697 7.94732C12.1103 8.08797 12.3011 8.16699 12.5 8.16699ZM7.73 9.70449C7.8697 9.84305 8.05825 9.92116 8.255 9.92199C8.35371 9.92256 8.45155 9.90364 8.54293 9.86632C8.63431 9.829 8.71742 9.774 8.7875 9.70449C8.92719 9.56397 9.00559 9.37388 9.00559 9.17574C9.00559 8.9776 8.92719 8.78751 8.7875 8.64699L8.255 8.11449C8.11152 7.99162 7.92697 7.92742 7.73821 7.93471C7.54945 7.942 7.3704 8.02025 7.23683 8.15382C7.10326 8.28739 7.02501 8.46645 7.01772 8.6552C7.01043 8.84396 7.07463 9.02852 7.1975 9.17199L7.73 9.70449ZM16.73 9.92199C16.9268 9.92116 17.1153 9.84305 17.255 9.70449L17.7875 9.17199C17.866 9.10476 17.9298 9.02202 17.9748 8.92897C18.0198 8.83592 18.0451 8.73457 18.0491 8.63128C18.0531 8.52799 18.0357 8.42499 17.998 8.32875C17.9603 8.23251 17.9031 8.1451 17.83 8.072C17.7569 7.99891 17.6695 7.94172 17.5732 7.90401C17.477 7.86631 17.374 7.8489 17.2707 7.85289C17.1674 7.85688 17.0661 7.88218 16.973 7.9272C16.88 7.97222 16.7972 8.03598 16.73 8.11449L16.25 8.64699C16.1103 8.78751 16.0319 8.9776 16.0319 9.17574C16.0319 9.37388 16.1103 9.56397 16.25 9.70449C16.3822 9.83601 16.5587 9.91356 16.745 9.92199H16.73ZM19.25 12.667H18.5C18.3011 12.667 18.1103 12.746 17.9697 12.8867C17.829 13.0273 17.75 13.2181 17.75 13.417C17.75 13.6159 17.829 13.8067 17.9697 13.9473C18.1103 14.088 18.3011 14.167 18.5 14.167H19.25C19.4489 14.167 19.6397 14.088 19.7803 13.9473C19.921 13.8067 20 13.6159 20 13.417C20 13.2181 19.921 13.0273 19.7803 12.8867C19.6397 12.746 19.4489 12.667 19.25 12.667ZM12.5 18.667C12.3011 18.667 12.1103 18.746 11.9697 18.8867C11.829 19.0273 11.75 19.2181 11.75 19.417V20.167C11.75 20.3659 11.829 20.5567 11.9697 20.6973C12.1103 20.838 12.3011 20.917 12.5 20.917C12.6989 20.917 12.8897 20.838 13.0303 20.6973C13.171 20.5567 13.25 20.3659 13.25 20.167V19.417C13.25 19.2181 13.171 19.0273 13.0303 18.8867C12.8897 18.746 12.6989 18.667 12.5 18.667ZM17.27 17.167C17.1275 17.0877 16.9631 17.0571 16.8016 17.0796C16.6401 17.1022 16.4904 17.1768 16.3751 17.2921C16.2598 17.4074 16.1852 17.5571 16.1627 17.7186C16.1401 17.8801 16.1707 18.0445 16.25 18.187L16.7825 18.7195C16.923 18.8592 17.1131 18.9376 17.3113 18.9376C17.5094 18.9376 17.6995 18.8592 17.84 18.7195C17.9797 18.579 18.0581 18.3889 18.0581 18.1907C18.0581 17.9926 17.9797 17.8025 17.84 17.662L17.27 17.167ZM12.5 9.29199C11.6842 9.29199 10.8866 9.53392 10.2083 9.98718C9.52992 10.4404 9.00121 11.0847 8.689 11.8384C8.37679 12.5922 8.2951 13.4216 8.45426 14.2217C8.61342 15.0219 9.00629 15.7569 9.58318 16.3338C10.1601 16.9107 10.8951 17.3036 11.6953 17.4627C12.4954 17.6219 13.3248 17.5402 14.0786 17.228C14.8323 16.9158 15.4766 16.3871 15.9298 15.7087C16.3831 15.0304 16.625 14.2328 16.625 13.417C16.623 12.3236 16.1878 11.2755 15.4146 10.5024C14.6415 9.72921 13.5934 9.29397 12.5 9.29199ZM12.5 16.042C11.9808 16.042 11.4733 15.888 11.0416 15.5996C10.6099 15.3112 10.2735 14.9012 10.0748 14.4215C9.87614 13.9419 9.82415 13.4141 9.92544 12.9049C10.0267 12.3957 10.2767 11.9279 10.6438 11.5608C11.011 11.1937 11.4787 10.9437 11.9879 10.8424C12.4971 10.7411 13.0249 10.7931 13.5045 10.9918C13.9842 11.1905 14.3942 11.5269 14.6826 11.9586C14.971 12.3903 15.125 12.8978 15.125 13.417C15.125 14.1132 14.8484 14.7809 14.3562 15.2731C13.8639 15.7654 13.1962 16.042 12.5 16.042V16.042Z" fill="#053536"/>
</svg>
