<svg width="24" height="23" viewBox="0 0 24 23" fill="none" xmlns="http://www.w3.org/2000/svg">
<path d="M18 1.91667H6C4.89543 1.91667 4 2.77479 4 3.83334V19.1667C4 20.2252 4.89543 21.0833 6 21.0833H18C19.1046 21.0833 20 20.2252 20 19.1667V3.83334C20 2.77479 19.1046 1.91667 18 1.91667Z" stroke="white" stroke-width="2" stroke-linecap="round" stroke-linejoin="round"/>
<path d="M12 17.25C14.2091 17.25 16 15.5338 16 13.4167C16 11.2996 14.2091 9.58333 12 9.58333C9.79086 9.58333 8 11.2996 8 13.4167C8 15.5338 9.79086 17.25 12 17.25Z" stroke="white" stroke-width="2" stroke-linecap="round" stroke-linejoin="round"/>
<path d="M12 5.75H12.01" stroke="white" stroke-width="2" stroke-linecap="round" stroke-linejoin="round"/>
</svg>
