<svg width="15" height="19" viewBox="0 0 15 19" fill="none" xmlns="http://www.w3.org/2000/svg">
<path fill-rule="evenodd" clip-rule="evenodd" d="M3.19775 0.898438C3.39875 1.51659 3.60675 2.14526 3.81475 2.76341C4.11875 3.69064 4.30875 4.38869 4.39475 4.87754V7.58039H5.34275V4.87754L6.49075 0.898438H5.52275L4.87775 3.52139L4.20475 0.898438H3.19775ZM7.76173 7.6492C8.19873 7.6492 8.53073 7.47994 8.76773 7.14038C8.94873 6.89122 9.03273 6.49173 9.03273 5.96294V4.21781C9.03273 3.68902 8.94873 3.30004 8.76773 3.05089C8.52973 2.71343 8.19773 2.54312 7.76173 2.54312C7.33373 2.54312 7.00173 2.71238 6.76673 3.05089C6.58573 3.30109 6.50073 3.69007 6.50073 4.21886V5.96399C6.50073 6.49279 6.58573 6.88176 6.76673 7.14143C7.00173 7.47994 7.33373 7.6492 7.76173 7.6492ZM7.35372 4.03965C7.35372 3.58129 7.48672 3.35211 7.76172 3.35211C8.04672 3.35211 8.16972 3.58129 8.16972 4.03965V6.13381C8.16972 6.59322 8.04672 6.83186 7.76172 6.83186C7.48672 6.83186 7.35372 6.59216 7.35372 6.13381V4.03965ZM9.7356 6.53236C9.7356 6.89084 9.7626 7.12948 9.8106 7.27982C9.8956 7.53002 10.0946 7.64882 10.3696 7.64882C10.6846 7.64882 11.0066 7.44907 11.3476 7.03066V7.57943H12.2106V2.60266H11.3476V6.402C11.1576 6.6911 10.9776 6.83092 10.8076 6.83092C10.6936 6.83092 10.6276 6.75207 10.6086 6.61225C10.5986 6.59123 10.5986 6.47243 10.5986 6.26218V2.60266H9.7356V6.53236ZM13.0937 13.3141V13.7725H12.2397V13.3141C12.2397 12.8652 12.3827 12.635 12.6667 12.635C12.9507 12.6361 13.0937 12.8652 13.0937 13.3141ZM14.7437 10.1349C14.5727 9.34647 13.9557 8.76827 13.2257 8.67891C11.4797 8.47917 9.71466 8.47917 7.95966 8.47917C6.20466 8.47917 4.43966 8.47917 2.70366 8.67891C1.96566 8.76827 1.35766 9.34647 1.17766 10.1349C0.940664 11.2514 0.930664 12.4688 0.930664 13.6252C0.930664 14.7721 0.930664 15.9979 1.17766 17.1154C1.34866 17.9039 1.96566 18.4821 2.69566 18.562C4.44066 18.7712 6.20566 18.7712 7.96066 18.7712C9.71566 18.7712 11.4807 18.7712 13.2267 18.562C13.9557 18.4821 14.5637 17.9039 14.7447 17.1154C14.9817 15.999 14.9917 14.7721 14.9917 13.6252L14.9917 13.6105V13.6104C14.9907 12.4584 14.9896 11.2467 14.7437 10.1349ZM3.92964 11.1417H4.94364V10.2039H1.98364V11.1417H2.98064V16.8165H3.92964V11.1417ZM7.50565 16.8149H6.66065V16.2767C6.31865 16.6856 5.99665 16.8854 5.69265 16.8854C5.41865 16.8854 5.21865 16.7655 5.14265 16.5164C5.09465 16.3671 5.06665 16.1369 5.06665 15.7889V11.8897H5.91165V15.5198V15.5198C5.91165 15.73 5.91165 15.8393 5.92065 15.8698C5.94065 16.0086 6.00665 16.079 6.11965 16.079C6.29165 16.079 6.47165 15.9403 6.66065 15.6606V11.8907H7.50565V16.8149ZM10.6456 16.3371C10.7116 16.1279 10.7316 15.7999 10.7316 15.3405V13.3756C10.7316 12.9162 10.7116 12.5882 10.6456 12.3885C10.5416 12.0195 10.3036 11.8303 9.97161 11.8303C9.65861 11.8303 9.36361 12.009 9.08861 12.3685V10.2039H8.24561V16.8165H9.08861V16.3371C9.37361 16.7061 9.66861 16.8859 9.97161 16.8859C10.3036 16.8859 10.5416 16.6966 10.6456 16.3371ZM13.9377 14.5225H12.2397V15.3898C12.2397 15.8492 12.3827 16.0774 12.6767 16.0774C12.8857 16.0774 13.0087 15.9586 13.0567 15.7189C13.0657 15.6695 13.0757 15.4697 13.0757 15.1102H13.9387V15.2405C13.9387 15.5296 13.9387 15.7294 13.9197 15.8187C13.8997 16.0174 13.8237 16.1972 13.7207 16.357C13.4917 16.706 13.1417 16.8858 12.6967 16.8858C12.2507 16.8858 11.9177 16.7165 11.6717 16.377C11.4917 16.1373 11.3967 15.7483 11.3967 15.2195V13.4944C11.3967 12.9656 11.4827 12.5871 11.6627 12.3369C11.9097 11.9973 12.2417 11.8281 12.6787 11.8281C13.1067 11.8281 13.4377 11.9973 13.6837 12.3369C13.8557 12.586 13.9407 12.9645 13.9407 13.4944V14.5225H13.9377ZM9.88655 15.4093V13.3046C9.88655 12.8662 9.76255 12.6371 9.51655 12.6371C9.37355 12.6371 9.23155 12.7065 9.08855 12.8568V15.8582C9.23155 16.0075 9.37355 16.0769 9.51655 16.0769C9.76255 16.0769 9.88655 15.8582 9.88655 15.4093Z" fill="white"/>
</svg>
