<svg width="13" height="13" viewBox="0 0 13 13" fill="none" xmlns="http://www.w3.org/2000/svg">
<path d="M12.1025 7.00256C12.016 6.93099 11.911 6.88518 11.7997 6.87033C11.6883 6.85549 11.5751 6.8722 11.4728 6.91858C10.8385 7.20882 10.1489 7.3582 9.45143 7.35644C8.16117 7.35488 6.92385 6.84328 6.00925 5.93317C5.09465 5.02307 4.57696 3.78829 4.56904 2.49805C4.57178 2.09368 4.62211 1.69104 4.71899 1.29844C4.73955 1.1938 4.73184 1.08557 4.69665 0.9849C4.66147 0.88423 4.60007 0.794762 4.5188 0.725712C4.43753 0.656663 4.33932 0.61053 4.23429 0.592066C4.12926 0.573603 4.0212 0.583475 3.92126 0.620668C2.98096 1.04347 2.16358 1.69837 1.5459 2.52383C0.928216 3.34929 0.530507 4.31822 0.390135 5.3396C0.249763 6.36098 0.371335 7.40128 0.743431 8.36277C1.11553 9.32425 1.72593 10.1754 2.5173 10.8362C3.30867 11.497 4.25503 11.9457 5.26748 12.1403C6.27992 12.3349 7.32522 12.269 8.30518 11.9487C9.28513 11.6283 10.1676 11.0641 10.8696 10.3091C11.5716 9.55409 12.0702 8.63299 12.3185 7.63235C12.3487 7.51778 12.3443 7.39683 12.3059 7.28474C12.2675 7.17266 12.1967 7.07447 12.1025 7.00256ZM6.40444 11.0152C5.39782 11.0081 4.41801 10.6901 3.59916 10.1046C2.7803 9.51908 2.16244 8.6948 1.83016 7.74459C1.49788 6.79437 1.46743 5.76468 1.74298 4.79649C2.01853 3.8283 2.58661 2.96895 3.36944 2.3361V2.49805C3.37103 4.1106 4.01232 5.65666 5.15257 6.79691C6.29282 7.93716 7.83887 8.57845 9.45143 8.58004C9.87482 8.58159 10.2971 8.53735 10.711 8.44808C10.2971 9.23113 9.67723 9.88631 8.9183 10.3429C8.15936 10.7996 7.29015 11.0403 6.40444 11.0392V11.0152Z" fill="white"/>
</svg>
