<svg width="17" height="18" viewBox="0 0 17 18" fill="none" xmlns="http://www.w3.org/2000/svg">
<path d="M6.6454 9.15234L4.52734 11.2704" stroke="white" stroke-width="0.833333" stroke-miterlimit="10" stroke-linecap="round" stroke-linejoin="round"/>
<path d="M4.54932 9.17383L6.66737 11.2919" stroke="white" stroke-width="0.833333" stroke-miterlimit="10" stroke-linecap="round" stroke-linejoin="round"/>
<path d="M9.39551 10.2227H9.40245" stroke="white" stroke-width="0.833333" stroke-miterlimit="10" stroke-linecap="round" stroke-linejoin="round"/>
<path d="M12.1328 10.2227H12.1398" stroke="white" stroke-width="0.833333" stroke-miterlimit="10" stroke-linecap="round" stroke-linejoin="round"/>
<path d="M10.7637 11.5969V11.583" stroke="white" stroke-width="0.833333" stroke-miterlimit="10" stroke-linecap="round" stroke-linejoin="round"/>
<path d="M10.7637 8.86154V8.84766" stroke="white" stroke-width="0.833333" stroke-miterlimit="10" stroke-linecap="round" stroke-linejoin="round"/>
<path d="M6.24978 15.7781H10.4165C13.8887 15.7781 15.2776 14.3892 15.2776 10.917V9.5281C15.2776 6.05588 13.8887 4.66699 10.4165 4.66699H6.24978C2.77756 4.66699 1.38867 6.05588 1.38867 9.5281V10.917C1.38867 14.3892 2.77756 15.7781 6.24978 15.7781Z" stroke="white" stroke-width="0.833333" stroke-linecap="round" stroke-linejoin="round"/>
<path d="M9.03521 1.88867L9.02827 2.59006C9.02132 2.97201 8.71577 3.27756 8.33382 3.27756H8.31299C7.93104 3.27756 7.62549 3.59006 7.62549 3.97201C7.62549 4.35395 7.93799 4.66645 8.31993 4.66645H9.01438" stroke="white" stroke-width="0.833333" stroke-linecap="round" stroke-linejoin="round"/>
</svg>
