<svg width="17" height="17" viewBox="0 0 17 17" fill="none" xmlns="http://www.w3.org/2000/svg">
<path d="M1.38916 15.4443L15.278 15.4443" stroke="white" stroke-width="0.833333" stroke-miterlimit="10" stroke-linecap="round" stroke-linejoin="round"/>
<path d="M6.771 2.94553L6.771 15.4455H9.896L9.896 2.94553C9.896 2.18164 9.5835 1.55664 8.646 1.55664H8.021C7.0835 1.55664 6.771 2.18164 6.771 2.94553Z" stroke="white" stroke-width="0.833333" stroke-linecap="round" stroke-linejoin="round"/>
<path d="M2.0835 7.11154L2.0835 15.4449H4.86127L4.86127 7.11154C4.86127 6.34766 4.5835 5.72266 3.75016 5.72266H3.19461C2.36127 5.72266 2.0835 6.34766 2.0835 7.11154Z" stroke="white" stroke-width="0.833333" stroke-linecap="round" stroke-linejoin="round"/>
<path d="M11.8057 10.5832L11.8057 15.4443H14.5834V10.5832C14.5834 9.81934 14.3057 9.19434 13.4723 9.19434H12.9168C12.0834 9.19434 11.8057 9.81934 11.8057 10.5832Z" stroke="white" stroke-width="0.833333" stroke-linecap="round" stroke-linejoin="round"/>
</svg>
