<svg width="17" height="18" viewBox="0 0 17 18" fill="none" xmlns="http://www.w3.org/2000/svg">
<path d="M8.77051 11.958V13.4163" stroke="white" stroke-width="0.833333" stroke-linecap="round" stroke-linejoin="round"/>
<path d="M5.29883 15.7786H12.2433V15.0842C12.2433 14.3203 11.6183 13.6953 10.8544 13.6953H6.68772C5.92383 13.6953 5.29883 14.3203 5.29883 15.0842V15.7786V15.7786Z" stroke="white" stroke-width="0.833333" stroke-miterlimit="10"/>
<path d="M4.60352 15.7773H12.9368" stroke="white" stroke-width="0.833333" stroke-linecap="round" stroke-linejoin="round"/>
<path d="M8.6658 11.6109C5.9783 11.6109 3.80469 9.43728 3.80469 6.74978V4.66645C3.80469 3.13173 5.04774 1.88867 6.58247 1.88867H10.7491C12.2839 1.88867 13.5269 3.13173 13.5269 4.66645V6.74978C13.5269 9.43728 11.3533 11.6109 8.6658 11.6109Z" stroke="white" stroke-width="0.833333" stroke-linecap="round" stroke-linejoin="round"/>
<path d="M4.13097 8.58995C3.61013 8.42328 3.1518 8.11773 2.79069 7.75662C2.16569 7.06217 1.74902 6.22884 1.74902 5.25662C1.74902 4.2844 2.51291 3.52051 3.48513 3.52051H3.93652C3.79763 3.83995 3.72819 4.19412 3.72819 4.56217V6.64551C3.72819 7.33995 3.87402 7.99273 4.13097 8.58995Z" stroke="white" stroke-width="0.833333" stroke-linecap="round" stroke-linejoin="round"/>
<path d="M13.2012 8.58995C13.722 8.42328 14.1803 8.11773 14.5414 7.75662C15.1664 7.06217 15.5831 6.22884 15.5831 5.25662C15.5831 4.2844 14.8192 3.52051 13.847 3.52051H13.3956C13.5345 3.83995 13.6039 4.19412 13.6039 4.56217V6.64551C13.6039 7.33995 13.4581 7.99273 13.2012 8.58995Z" stroke="white" stroke-width="0.833333" stroke-linecap="round" stroke-linejoin="round"/>
</svg>
