<svg width="17" height="18" viewBox="0 0 17 18" fill="none" xmlns="http://www.w3.org/2000/svg">
<path d="M8.68123 2.52051C6.38262 2.52051 4.51456 4.38856 4.51456 6.68717V8.69412C4.51456 9.11773 4.334 9.76356 4.11873 10.1247L3.32012 11.4511C2.82706 12.2705 3.16734 13.1802 4.07012 13.4858C7.06317 14.4858 10.2923 14.4858 13.2854 13.4858C14.1257 13.208 14.4937 12.215 14.0354 11.4511L13.2368 10.1247C13.0284 9.76356 12.8479 9.11773 12.8479 8.69412V6.68717C12.8479 4.39551 10.9729 2.52051 8.68123 2.52051Z" stroke="white" stroke-width="0.833333" stroke-miterlimit="10" stroke-linecap="round"/>
<path d="M9.96495 2.72266C9.74967 2.66016 9.52745 2.61155 9.29829 2.58377C8.63162 2.50043 7.99273 2.54905 7.39551 2.72266C7.5969 2.20877 8.0969 1.84766 8.68023 1.84766C9.26356 1.84766 9.76356 2.20877 9.96495 2.72266Z" stroke="white" stroke-width="0.833333" stroke-miterlimit="10" stroke-linecap="round" stroke-linejoin="round"/>
<path d="M10.7643 13.7354C10.7643 14.8812 9.82682 15.8187 8.68099 15.8187C8.11155 15.8187 7.58377 15.5826 7.20877 15.2076C6.83377 14.8326 6.59766 14.3048 6.59766 13.7354" stroke="white" stroke-width="0.833333" stroke-miterlimit="10"/>
</svg>
