<svg width="17" height="18" viewBox="0 0 17 18" fill="none" xmlns="http://www.w3.org/2000/svg">
<path d="M7.27723 3.62478V12.9998C7.27723 13.7498 6.97167 14.4373 6.48556 14.9373L6.4578 14.9651C6.3953 15.0276 6.32585 15.0901 6.26335 15.1387C6.05502 15.3192 5.81889 15.4581 5.57584 15.5553C5.49945 15.5901 5.42307 15.6178 5.34668 15.6456C5.07585 15.7359 4.78418 15.7776 4.49946 15.7776C4.31196 15.7776 4.12447 15.7567 3.94391 15.722C3.85363 15.7012 3.76334 15.6803 3.67307 15.6526C3.56196 15.6178 3.45779 15.5831 3.35363 15.5345C3.35363 15.5276 3.35362 15.5276 3.34668 15.5345C3.15223 15.4373 2.96474 15.3262 2.79113 15.1942L2.78418 15.1873C2.6939 15.1178 2.61058 15.0484 2.53419 14.9651C2.4578 14.8817 2.3814 14.7984 2.30501 14.7081C2.17307 14.5345 2.06196 14.347 1.96474 14.1526C1.97168 14.1456 1.97168 14.1456 1.96474 14.1456C1.96474 14.1456 1.96473 14.1387 1.95779 14.1317C1.91612 14.0345 1.8814 13.9303 1.84667 13.8262C1.8189 13.7359 1.79806 13.6456 1.77723 13.5553C1.7425 13.3748 1.72168 13.1873 1.72168 12.9998V3.62478C1.72168 2.58312 2.41612 1.88867 3.45779 1.88867H5.54112C6.58279 1.88867 7.27723 2.58312 7.27723 3.62478Z" stroke="white" stroke-width="0.833333" stroke-linecap="round" stroke-linejoin="round"/>
<path d="M15.6111 11.9588V14.0421C15.6111 15.0838 14.9167 15.7782 13.875 15.7782H4.5C4.78472 15.7782 5.07639 15.7365 5.34722 15.6463C5.42361 15.6185 5.49999 15.5907 5.57638 15.556C5.81944 15.4588 6.05556 15.3199 6.26389 15.1393C6.32639 15.0907 6.39584 15.0282 6.45834 14.9657L6.4861 14.9379L11.2083 10.2227H13.875C14.9167 10.2227 15.6111 10.9171 15.6111 11.9588Z" stroke="white" stroke-width="0.833333" stroke-linecap="round" stroke-linejoin="round"/>
<path d="M3.67356 15.6535C3.25689 15.5285 2.86107 15.2994 2.53468 14.966C2.20135 14.6396 1.97217 14.2438 1.84717 13.8271C2.118 14.6952 2.8055 15.3827 3.67356 15.6535Z" stroke="white" stroke-width="0.833333" stroke-linecap="round" stroke-linejoin="round"/>
<path d="M13.09 8.34005L11.2081 10.222L6.48584 14.9373C6.97195 14.4373 7.27752 13.7498 7.27752 12.9998V6.29144L9.15945 4.40951C9.89557 3.67339 10.8817 3.67339 11.6178 4.40951L13.09 5.88172C13.8261 6.61784 13.8261 7.60394 13.09 8.34005Z" stroke="white" stroke-width="0.833333" stroke-linecap="round" stroke-linejoin="round"/>
<path d="M4.49962 13.6936C4.88315 13.6936 5.19406 13.3827 5.19406 12.9991C5.19406 12.6156 4.88315 12.3047 4.49962 12.3047C4.11609 12.3047 3.80518 12.6156 3.80518 12.9991C3.80518 13.3827 4.11609 13.6936 4.49962 13.6936Z" stroke="white" stroke-width="0.833333" stroke-linecap="round" stroke-linejoin="round"/>
</svg>
