<svg width="17" height="18" viewBox="0 0 17 18" fill="none" xmlns="http://www.w3.org/2000/svg">
<path d="M15.6113 6.24284V3.43728C15.6113 2.33312 15.1668 1.88867 14.0627 1.88867H11.2571C10.1529 1.88867 9.7085 2.33312 9.7085 3.43728V6.24284C9.7085 7.34701 10.1529 7.79145 11.2571 7.79145H14.0627C15.1668 7.79145 15.6113 7.34701 15.6113 6.24284Z" stroke="white" stroke-width="0.833333" stroke-linecap="round" stroke-linejoin="round"/>
<path d="M7.62446 6.41645V3.26367C7.62446 2.28451 7.18001 1.88867 6.07585 1.88867H3.27029C2.16612 1.88867 1.72168 2.28451 1.72168 3.26367V6.40951C1.72168 7.39562 2.16612 7.78451 3.27029 7.78451H6.07585C7.18001 7.79145 7.62446 7.39562 7.62446 6.41645Z" stroke="white" stroke-width="0.833333" stroke-linecap="round" stroke-linejoin="round"/>
<path d="M7.62446 14.2292V11.4236C7.62446 10.3194 7.18001 9.875 6.07585 9.875H3.27029C2.16612 9.875 1.72168 10.3194 1.72168 11.4236V14.2292C1.72168 15.3333 2.16612 15.7778 3.27029 15.7778H6.07585C7.18001 15.7778 7.62446 15.3333 7.62446 14.2292Z" stroke="white" stroke-width="0.833333" stroke-linecap="round" stroke-linejoin="round"/>
<path d="M10.4033 12.6533H14.57" stroke="white" stroke-width="0.833333" stroke-linecap="round"/>
<path d="M12.4868 14.737V10.5703" stroke="white" stroke-width="0.833333" stroke-linecap="round"/>
</svg>
